<mxfile host="app.diagrams.net" agent="Mozilla/5.0 (Macintosh; Intel Mac OS X 10_15_7) AppleWebKit/537.36 (KHTML, like Gecko) Chrome/133.0.0.0 Safari/537.36" version="26.0.16">
  <diagram name="Page-1" id="WpiRCljqd_P_I47EIugt">
    <mxGraphModel dx="3287" dy="2109" grid="1" gridSize="10" guides="1" tooltips="1" connect="1" arrows="1" fold="1" page="1" pageScale="1" pageWidth="827" pageHeight="1169" math="0" shadow="0">
      <root>
        <mxCell id="0" />
        <mxCell id="1" parent="0" />
        <mxCell id="vcF21t9KvUX2QAD83Z5n-1" value="" style="rounded=0;whiteSpace=wrap;html=1;fillColor=none;" vertex="1" parent="1">
          <mxGeometry x="520" y="-1040" width="480" height="360" as="geometry" />
        </mxCell>
        <mxCell id="clEuy_jHslPMNh-MXlWW-19" value="" style="rounded=0;whiteSpace=wrap;html=1;fillColor=#f5f5f5;fontColor=#333333;strokeColor=#666666;" parent="1" vertex="1">
          <mxGeometry x="-1440" y="-340" width="760" height="320" as="geometry" />
        </mxCell>
        <mxCell id="clEuy_jHslPMNh-MXlWW-12" value="" style="rounded=0;whiteSpace=wrap;html=1;fillColor=#f5f5f5;fontColor=#333333;strokeColor=#666666;" parent="1" vertex="1">
          <mxGeometry x="-1440" y="-740" width="760" height="320" as="geometry" />
        </mxCell>
        <mxCell id="clEuy_jHslPMNh-MXlWW-17" style="edgeStyle=orthogonalEdgeStyle;rounded=0;orthogonalLoop=1;jettySize=auto;html=1;entryX=0.5;entryY=0;entryDx=0;entryDy=0;" parent="1" source="clEuy_jHslPMNh-MXlWW-10" target="clEuy_jHslPMNh-MXlWW-5" edge="1">
          <mxGeometry relative="1" as="geometry">
            <Array as="points">
              <mxPoint x="-1060" y="-780" />
              <mxPoint x="-1240" y="-780" />
            </Array>
          </mxGeometry>
        </mxCell>
        <mxCell id="clEuy_jHslPMNh-MXlWW-10" value="" style="rounded=0;whiteSpace=wrap;html=1;fillColor=#f5f5f5;fontColor=#333333;strokeColor=#666666;" parent="1" vertex="1">
          <mxGeometry x="-1440" y="-1020" width="760" height="200" as="geometry" />
        </mxCell>
        <mxCell id="clEuy_jHslPMNh-MXlWW-15" style="edgeStyle=orthogonalEdgeStyle;rounded=0;orthogonalLoop=1;jettySize=auto;html=1;entryX=0.5;entryY=0;entryDx=0;entryDy=0;" parent="1" source="clEuy_jHslPMNh-MXlWW-1" target="clEuy_jHslPMNh-MXlWW-2" edge="1">
          <mxGeometry relative="1" as="geometry" />
        </mxCell>
        <mxCell id="clEuy_jHslPMNh-MXlWW-1" value="Page Building Interface" style="rounded=1;whiteSpace=wrap;html=1;fillColor=#647687;strokeColor=#314354;strokeWidth=0.5;fontSize=14;fontColor=#ffffff;" parent="1" vertex="1">
          <mxGeometry x="-980" y="-680" width="200" height="40" as="geometry" />
        </mxCell>
        <mxCell id="clEuy_jHslPMNh-MXlWW-16" style="edgeStyle=orthogonalEdgeStyle;rounded=0;orthogonalLoop=1;jettySize=auto;html=1;entryX=0.5;entryY=0;entryDx=0;entryDy=0;" parent="1" source="clEuy_jHslPMNh-MXlWW-2" target="clEuy_jHslPMNh-MXlWW-3" edge="1">
          <mxGeometry relative="1" as="geometry" />
        </mxCell>
        <mxCell id="clEuy_jHslPMNh-MXlWW-2" value="Configuration Generator" style="rounded=1;whiteSpace=wrap;html=1;fillColor=#647687;strokeColor=#314354;strokeWidth=0.5;fontSize=14;fontColor=#ffffff;" parent="1" vertex="1">
          <mxGeometry x="-980" y="-600" width="200" height="40" as="geometry" />
        </mxCell>
        <mxCell id="clEuy_jHslPMNh-MXlWW-3" value="Preview Manager" style="rounded=1;whiteSpace=wrap;html=1;fillColor=#647687;strokeColor=#314354;strokeWidth=0.5;fontSize=14;fontColor=#ffffff;" parent="1" vertex="1">
          <mxGeometry x="-980" y="-520" width="200" height="40" as="geometry" />
        </mxCell>
        <mxCell id="clEuy_jHslPMNh-MXlWW-18" style="edgeStyle=orthogonalEdgeStyle;rounded=0;orthogonalLoop=1;jettySize=auto;html=1;entryX=0;entryY=0.5;entryDx=0;entryDy=0;" parent="1" source="clEuy_jHslPMNh-MXlWW-4" target="clEuy_jHslPMNh-MXlWW-1" edge="1">
          <mxGeometry relative="1" as="geometry" />
        </mxCell>
        <mxCell id="clEuy_jHslPMNh-MXlWW-4" value="Component Registry" style="rounded=1;whiteSpace=wrap;html=1;fillColor=#647687;strokeColor=#314354;strokeWidth=0.5;fontSize=14;fontColor=#ffffff;" parent="1" vertex="1">
          <mxGeometry x="-1340" y="-600" width="200" height="40" as="geometry" />
        </mxCell>
        <mxCell id="clEuy_jHslPMNh-MXlWW-14" style="edgeStyle=orthogonalEdgeStyle;rounded=0;orthogonalLoop=1;jettySize=auto;html=1;entryX=0.5;entryY=0;entryDx=0;entryDy=0;" parent="1" source="clEuy_jHslPMNh-MXlWW-5" target="clEuy_jHslPMNh-MXlWW-4" edge="1">
          <mxGeometry relative="1" as="geometry" />
        </mxCell>
        <mxCell id="clEuy_jHslPMNh-MXlWW-5" value="&lt;font style=&quot;font-size: 14px;&quot;&gt;Component Publisher&lt;/font&gt;&lt;br&gt;GIT/Upload Interface" style="rounded=1;whiteSpace=wrap;html=1;fillColor=#647687;strokeColor=#314354;strokeWidth=0.5;fontColor=#ffffff;" parent="1" vertex="1">
          <mxGeometry x="-1340" y="-680" width="200" height="40" as="geometry" />
        </mxCell>
        <mxCell id="clEuy_jHslPMNh-MXlWW-7" value="Page 1 Team" style="rounded=1;whiteSpace=wrap;html=1;fillColor=#647687;strokeColor=#314354;strokeWidth=0.5;fontSize=14;fontColor=#ffffff;" parent="1" vertex="1">
          <mxGeometry x="-1140" y="-940" width="160" height="40" as="geometry" />
        </mxCell>
        <mxCell id="clEuy_jHslPMNh-MXlWW-8" value="Page 2 Team" style="rounded=1;whiteSpace=wrap;html=1;fillColor=#647687;strokeColor=#314354;strokeWidth=0.5;fontSize=14;fontColor=#ffffff;" parent="1" vertex="1">
          <mxGeometry x="-920" y="-940" width="160" height="40" as="geometry" />
        </mxCell>
        <mxCell id="clEuy_jHslPMNh-MXlWW-9" value="Global Team" style="rounded=1;whiteSpace=wrap;html=1;fillColor=#647687;strokeColor=#314354;strokeWidth=0.5;fontSize=14;fontColor=#ffffff;" parent="1" vertex="1">
          <mxGeometry x="-1360" y="-940" width="160" height="40" as="geometry" />
        </mxCell>
        <mxCell id="clEuy_jHslPMNh-MXlWW-11" value="&lt;b&gt;CHECKOUT FE&lt;/b&gt;" style="text;html=1;align=center;verticalAlign=middle;whiteSpace=wrap;rounded=0;" parent="1" vertex="1">
          <mxGeometry x="-1160" y="-1010" width="200" height="30" as="geometry" />
        </mxCell>
        <mxCell id="clEuy_jHslPMNh-MXlWW-13" value="&lt;b&gt;STUDIO APPLICATION&lt;/b&gt;" style="text;html=1;align=center;verticalAlign=middle;whiteSpace=wrap;rounded=0;" parent="1" vertex="1">
          <mxGeometry x="-1160" y="-730" width="200" height="30" as="geometry" />
        </mxCell>
        <mxCell id="vcF21t9KvUX2QAD83Z5n-2" value="Development Environment" style="rounded=0;whiteSpace=wrap;html=1;fillColor=none;strokeColor=none;" vertex="1" parent="1">
          <mxGeometry x="520" y="-1040" width="480" height="40" as="geometry" />
        </mxCell>
        <mxCell id="vcF21t9KvUX2QAD83Z5n-3" value="External Teams" style="rounded=0;whiteSpace=wrap;html=1;" vertex="1" parent="1">
          <mxGeometry x="600" y="-960" width="120" height="40" as="geometry" />
        </mxCell>
        <mxCell id="vcF21t9KvUX2QAD83Z5n-4" value="Internal Teams" style="rounded=0;whiteSpace=wrap;html=1;" vertex="1" parent="1">
          <mxGeometry x="800" y="-960" width="120" height="40" as="geometry" />
        </mxCell>
      </root>
    </mxGraphModel>
  </diagram>
</mxfile>
